<svg width="30" height="30" viewBox="0 0 30 30" fill="none" xmlns="http://www.w3.org/2000/svg">
<g clip-path="url(#clip0_75_14)">
<path d="M6.79688 0.0878849C5.02148 0.445307 3.49805 1.62304 2.69531 3.25195C2.53711 3.57421 2.34961 4.04882 2.27344 4.30663L2.13867 4.77538L2.12109 10.5879L2.10352 16.4062H1.05469H0V21.7266C0 26.2383 0.0117188 27.0937 0.0878906 27.3809C0.404297 28.5937 1.40625 29.5957 2.61914 29.9121C3.12305 30.0469 26.877 30.0469 27.3809 29.9121C28.5938 29.5957 29.5957 28.5937 29.9121 27.3809C29.9883 27.0937 30 26.2441 30 21.7266V16.4062H28.9453H27.8965L27.8789 10.5879L27.8613 4.77538L27.7266 4.30663C27.5332 3.62109 27.0703 2.73632 26.6191 2.16796C25.8867 1.2539 24.7324 0.492182 23.584 0.164057L23.1152 0.0292912L15.1465 0.0175724C8.76562 0.011713 7.10156 0.0234318 6.79688 0.0878849ZM23.0566 2.53124C24.2051 2.92382 25.0605 3.82617 25.4121 5.00976C25.5059 5.33203 25.5176 5.82421 25.5352 10.8809L25.5527 16.4062H23.2031H20.8594V13.9863V11.5723L21.2871 11.3672C21.6035 11.2148 21.8262 11.0508 22.1777 10.6934C22.9102 9.96093 23.2031 9.24609 23.2031 8.20312C23.2031 7.31249 22.9277 6.51562 22.418 5.94726L22.1777 5.67773L21.3398 6.52148L20.502 7.35937L20.6484 7.62304C20.7598 7.81054 20.8008 7.96874 20.8008 8.1914C20.8008 8.85351 20.3438 9.3164 19.6875 9.3164C19.0312 9.3164 18.5742 8.85351 18.5742 8.1914C18.5742 7.96874 18.6152 7.81054 18.7266 7.62304L18.873 7.35937L18.0352 6.52148L17.1973 5.67773L16.957 5.94726C16.4473 6.51562 16.1719 7.31249 16.1719 8.20312C16.1719 9.24609 16.4648 9.96679 17.1973 10.6934C17.543 11.0391 17.7773 11.2148 18.0938 11.3672L18.5156 11.5723V13.9863V16.4062H15H11.4844V14.0625V11.7187H12.832C13.5762 11.7187 14.1797 11.7012 14.1797 11.6719C14.1797 11.6484 13.7871 10.0723 13.3125 8.17382L12.4453 4.71679H10.3125H8.17969L7.3125 8.17382C6.83789 10.0723 6.44531 11.6484 6.44531 11.6719C6.44531 11.7012 7.05469 11.7187 7.79297 11.7187H9.14062V14.0625V16.4062H6.79102H4.44727L4.46484 10.8516L4.48242 5.30273L4.62305 4.89257C4.80469 4.34179 5.04492 3.93163 5.43164 3.51562C6 2.90038 6.76758 2.50195 7.55859 2.40234C7.76953 2.3789 11.2383 2.36132 15.2637 2.36718L22.5879 2.37304L23.0566 2.53124ZM10.8281 8.20312L11.1211 9.37499H10.3125H9.50391L9.79688 8.20312L10.0898 7.03124H10.3125H10.5352L10.8281 8.20312ZM27.6562 19.9219V21.0937H25.4297H23.2031V22.2656V23.4375H25.4355H27.668L27.6445 25.0898C27.627 26.5723 27.6152 26.7715 27.5156 26.9531C27.3633 27.2402 27.252 27.3574 26.9824 27.5039L26.748 27.6269H15C3.63281 27.6269 3.24609 27.6211 3.04688 27.5156C2.75977 27.3633 2.64258 27.2519 2.49609 26.9824C2.37891 26.7598 2.37305 26.6484 2.35547 25.0898L2.33203 23.4375H4.56445H6.79688V22.2656V21.0937H4.57031H2.34375V19.9219V18.75H15H27.6562V19.9219Z" fill="white"/>
</g>
<defs>
<clipPath id="clip0_75_14">
<rect width="30" height="30" fill="white"/>
</clipPath>
</defs>
</svg>
