<svg width="30" height="30" viewBox="0 0 30 30" fill="none" xmlns="http://www.w3.org/2000/svg">
<g clip-path="url(#clip0_75_35)">
<path d="M9.14062 1.64062V3.28125H7.6875H6.24023L4.75781 4.76367L3.28125 6.24023V7.69336V9.14062H1.64062H0V10.3125V11.4844H1.64062H3.28125V12.6562V13.8281H1.64062H0V15V16.1719H1.64062H3.28125V17.3438V18.5156H1.64062H0V19.6875V20.8594H1.64062H3.28125V22.3125V23.7598L4.76367 25.2422L6.24023 26.7188H7.69336H9.14062V28.3594V30H10.3125H11.4844V28.3594V26.7188H12.6562H13.8281V28.3594V30H15H16.1719V28.3594V26.7188H17.3438H18.5156V28.3594V30H19.6875H20.8594V28.3594V26.7188H22.3066H23.7598L25.2363 25.2422L26.7188 23.7598V22.3125V20.8594H28.3594H30V19.6875V18.5156H28.3594H26.7188V17.3438V16.1719H28.3594H30V15V13.8281H28.3594H26.7188V12.6562V11.4844H28.3594H30V10.3125V9.14062H28.3594H26.7188V7.6875V6.24023L25.2363 4.75781L23.7598 3.28125H22.3066H20.8594V1.64062V0H19.6875H18.5156V1.64062V3.28125H17.3438H16.1719V1.64062V0H15H13.8281V1.64062V3.28125H12.6562H11.4844V1.64062V0H10.3125H9.14062V1.64062ZM23.5078 6.48633L24.375 7.35352V15V22.6465L23.5137 23.5078L22.6465 24.375H15H7.35352L6.48633 23.5078L5.625 22.6465V15V7.35352L6.48633 6.49219L7.35352 5.625H15H22.6465L23.5078 6.48633Z" fill="white"/>
<path d="M13.8281 9.19336V10.418L13.5234 10.5234C13.3535 10.5762 13.084 10.6875 12.9258 10.7637L12.6387 10.9102L11.7832 10.0547C11.3145 9.58594 10.8984 9.19922 10.8691 9.19922C10.793 9.19922 9.19922 10.793 9.19922 10.8691C9.19922 10.8984 9.58594 11.3145 10.0547 11.7832L10.9102 12.6387L10.7637 12.9258C10.6875 13.084 10.5762 13.3535 10.5234 13.5176L10.418 13.8281H9.19336H7.96875V15V16.1719H9.19336H10.418L10.5234 16.4766C10.5762 16.6465 10.6875 16.916 10.7637 17.0742L10.9102 17.3613L10.0547 18.2168C9.58594 18.6855 9.19922 19.1016 9.19922 19.1309C9.19922 19.207 10.793 20.8008 10.8691 20.8008C10.8984 20.8008 11.3145 20.4141 11.7832 19.9453L12.6387 19.0898L12.9258 19.2363C13.084 19.3125 13.3535 19.4238 13.5234 19.4766L13.8281 19.582V20.8066V22.0312H15H16.1719V20.8066V19.582L16.4824 19.4766C16.6465 19.4238 16.916 19.3125 17.0742 19.2363L17.3613 19.0898L18.2168 19.9453C18.6855 20.4141 19.1016 20.8008 19.1309 20.8008C19.207 20.8008 20.8008 19.207 20.8008 19.1309C20.8008 19.1016 20.4141 18.6855 19.9453 18.2168L19.0898 17.3613L19.2363 17.0742C19.3125 16.916 19.4238 16.6465 19.4766 16.4766L19.582 16.1719H20.8066H22.0312V15V13.8281H20.8066H19.582L19.4766 13.5176C19.4238 13.3535 19.3125 13.084 19.2363 12.9258L19.0898 12.6387L19.9453 11.7832C20.4141 11.3145 20.8008 10.8984 20.8008 10.8691C20.8008 10.793 19.207 9.19922 19.1309 9.19922C19.1016 9.19922 18.6855 9.58594 18.2168 10.0547L17.3613 10.9102L17.0742 10.7637C16.916 10.6875 16.6465 10.5762 16.4824 10.5234L16.1719 10.418V9.19336V7.96875H15H13.8281V9.19336ZM15.9551 12.9082C16.3887 13.1074 16.8926 13.6055 17.0977 14.0449C17.2383 14.3496 17.2559 14.4551 17.2559 15C17.2559 15.5449 17.2383 15.6504 17.0977 15.9551C16.8926 16.3887 16.3887 16.8926 15.9551 17.0977C15.6504 17.2383 15.5449 17.2559 15 17.2559C14.4551 17.2559 14.3496 17.2383 14.0449 17.0977C13.6113 16.8926 13.1074 16.3887 12.9023 15.9551C12.7617 15.6504 12.7441 15.5449 12.7441 15C12.7441 14.4551 12.7617 14.3496 12.8965 14.0625C13.1777 13.4707 13.6582 13.0312 14.2559 12.8203C14.7129 12.6562 15.5039 12.6973 15.9551 12.9082Z" fill="white"/>
</g>
<defs>
<clipPath id="clip0_75_35">
<rect width="30" height="30" fill="white"/>
</clipPath>
</defs>
</svg>
