<svg width="30" height="30" viewBox="0 0 30 30" fill="none" xmlns="http://www.w3.org/2000/svg">
<g clip-path="url(#clip0_75_18)">
<path d="M13.125 0.0878925C10.5234 0.410158 8.13281 1.37696 5.97656 2.97656C5.09766 3.63281 3.63281 5.09766 2.97656 5.97656C1.35938 8.15625 0.404297 10.541 0.0820312 13.1836C-0.0175781 14.0508 -0.0175781 15.9492 0.0820312 16.8164C0.339844 18.9492 1.01953 20.918 2.12695 22.7637C3.31055 24.7324 5.26758 26.6895 7.23633 27.873C9.14648 29.0215 11.2441 29.7188 13.4414 29.9414C14.1211 30.0117 16.4531 29.9883 16.9512 29.9063L17.168 29.8711L16.8574 29.5371C16.4707 29.1152 15.9434 28.418 15.6738 27.9609L15.4629 27.6152L14.4551 27.5801C13.8984 27.5625 13.2129 27.5039 12.9199 27.4512C10.2598 26.9707 7.98047 25.7871 6.09961 23.9004C4.20703 22.0078 3.04688 19.7813 2.53711 17.0508C2.39062 16.2539 2.39062 13.7461 2.53711 12.9492C3.04688 10.2188 4.20703 7.99219 6.09961 6.09961C7.69922 4.49414 9.63867 3.36914 11.7422 2.8125C13.0195 2.47852 13.377 2.43164 15 2.43164C16.623 2.43164 16.9805 2.47852 18.2578 2.8125C20.3613 3.36914 22.3008 4.49414 23.9004 6.09961C25.7871 7.98047 26.9707 10.2598 27.4512 12.9199C27.5039 13.207 27.5625 13.9102 27.5801 14.4785L27.6152 15.5039L27.8555 15.6387C28.3066 15.8965 28.9805 16.3945 29.4023 16.793C29.6367 17.0039 29.8359 17.1738 29.8477 17.1621C29.918 17.0859 30 15.9258 30 14.9707C29.9941 13.3184 29.8184 12.0703 29.3789 10.6172C28.8691 8.92969 28.1133 7.44727 27.0234 5.97656C26.3672 5.09766 24.9023 3.63281 24.0234 2.97656C21.8438 1.35938 19.459 0.404299 16.8164 0.0820332C15.9785 -0.0175762 13.957 -0.0117168 13.125 0.0878925Z" fill="white"/>
<path d="M13.8281 9.14062V13.8281H10.5469H7.26562V15V16.1719H11.7188H16.1719V10.3125V4.45312H15H13.8281V9.14062Z" fill="white"/>
<path d="M22.207 17.7773V18.7969L21.9902 18.8672C21.8672 18.9082 21.5859 19.0195 21.3691 19.1191L20.9707 19.3008L20.2266 18.5566L19.4824 17.8125L18.6328 18.6621L17.7832 19.5117L18.5391 20.2676L19.2891 21.0176L19.1133 21.3633C19.0195 21.5508 18.9082 21.8203 18.8672 21.9551L18.791 22.207H17.7422H16.6992V23.3789V24.5508H17.7422H18.791L18.8672 24.7969C18.9082 24.9375 19.0195 25.207 19.1133 25.3945L19.2891 25.7402L18.5391 26.4902L17.7832 27.2461L18.6328 28.0957L19.4824 28.9453L20.2266 28.2012L20.9707 27.457L21.3691 27.6387C21.5859 27.7383 21.8672 27.8496 21.9902 27.8906L22.207 27.9609V28.9805V30H23.3789H24.5508L24.5625 28.9629L24.5801 27.9316L24.7559 27.873C24.8555 27.8438 25.1133 27.7383 25.3301 27.6387L25.7285 27.457L26.4727 28.2012L27.2168 28.9453L28.0664 28.0957L28.916 27.2461L28.1719 26.502L27.4277 25.752L27.5566 25.5176C27.6211 25.3887 27.7383 25.125 27.8086 24.9316L27.9375 24.5801L28.9688 24.5625L30 24.5508V23.3789V22.207L28.9688 22.1953L27.9375 22.1777L27.8086 21.8262C27.7383 21.6328 27.6211 21.3691 27.5566 21.2402L27.4277 21.0059L28.1719 20.2559L28.916 19.5117L28.0664 18.6621L27.2168 17.8125L26.4727 18.5566L25.7285 19.3008L25.3301 19.1191C25.1133 19.0195 24.8555 18.9141 24.7559 18.8848L24.5801 18.8262L24.5625 17.7949L24.5508 16.7578H23.3789H22.207V17.7773ZM24.3164 21.3047C26.0977 22.1484 26.0977 24.6094 24.3164 25.4531C23.9707 25.6172 23.8828 25.6348 23.3496 25.6348C22.8047 25.6348 22.7344 25.623 22.3828 25.4473C20.9648 24.7441 20.6191 22.9219 21.6973 21.8086C22.1953 21.293 22.6992 21.0879 23.4375 21.1113C23.8535 21.123 24 21.1523 24.3164 21.3047Z" fill="white"/>
</g>
<defs>
<clipPath id="clip0_75_18">
<rect width="30" height="30" fill="white"/>
</clipPath>
</defs>
</svg>
