<svg width="30" height="30" viewBox="0 0 30 30" fill="none" xmlns="http://www.w3.org/2000/svg">
<g clip-path="url(#clip0_75_24)">
<path d="M10.8691 0.111326C10.1133 0.304686 9.79102 0.468748 8.67188 1.20703C7.81055 1.78125 7.25977 2.09179 6.21094 2.60156C5.14453 3.11719 4.21875 3.44531 3.05274 3.72656C2.06836 3.96094 1.5586 4.20117 1.08985 4.65234C0.703128 5.02734 0.351565 5.56054 0.164065 6.05273L0.0292997 6.41601L0.0117215 10.8926C-0.0058566 15.832 0.00586215 16.002 0.357425 17.4551C1.18946 20.8535 3.4336 24.0469 6.97852 26.8711C8.21485 27.8555 9.84375 28.8984 11.2617 29.625L12.0059 30L12.8145 29.5957C14.5254 28.7402 16.4473 27.4512 17.8887 26.2031L18.1699 25.957H16.2012H14.2324L13.9863 26.127C13.6348 26.3613 12.9961 26.7539 12.4629 27.0469L12.0059 27.2988L11.4375 26.9707C7.89844 24.9434 5.00977 22.0898 3.58008 19.2129C2.85938 17.7715 2.4961 16.4238 2.40235 14.8594C2.32617 13.6523 2.32617 7.48242 2.40235 7.08984C2.50782 6.5332 2.84766 6.21679 3.47461 6.09961C5.4375 5.72461 7.875 4.64062 10.1777 3.11719C11.0684 2.53125 11.3965 2.40234 12.0117 2.40234C12.6328 2.40234 12.9375 2.52539 13.9277 3.16992C16.2246 4.67578 18.5098 5.68359 20.5371 6.09375C20.9473 6.17578 21.1348 6.26367 21.3047 6.45703C21.5742 6.74414 21.6387 6.97265 21.668 7.6875L21.6973 8.3789H22.8633H24.0352L24.0117 7.39453C23.9766 6.28125 23.9004 5.96484 23.4844 5.32617C22.9219 4.45312 22.2715 4.03711 20.9707 3.72656C19.8164 3.45117 18.8906 3.11719 17.7832 2.58398C16.7227 2.07422 16.1895 1.76367 15.082 1.03711C13.8574 0.222654 13.166 -0.00586128 11.9707 0.00585747C11.5137 0.00585747 11.1387 0.0468731 10.8691 0.111326Z" fill="white"/>
<path d="M27.2344 4.54102C26.8828 4.66992 26.4961 4.96875 26.2793 5.26172C25.9746 5.67773 25.8809 6.01172 25.9102 6.60938C25.9395 7.23047 26.0859 7.57031 26.4961 7.98633L26.7773 8.26758V9.52148V10.7812H22.3828H17.9824L17.6777 10.4707C17.2031 9.99023 16.916 9.87305 16.1719 9.87305C15.6387 9.87305 15.5215 9.89062 15.2637 10.0195C14.8887 10.2012 14.4785 10.6113 14.2969 10.9863C14.168 11.2383 14.1504 11.3613 14.1504 11.8945C14.1504 12.4277 14.168 12.5508 14.2969 12.8027C14.4785 13.1777 14.8887 13.5879 15.2637 13.7695C15.5156 13.8984 15.6387 13.916 16.1719 13.916C16.7051 13.916 16.8223 13.8984 17.0742 13.7754C17.2383 13.6934 17.4844 13.5176 17.6309 13.377L17.8945 13.125H23.5078H29.1211V10.6934V8.26758L29.4023 7.98633C29.5547 7.83398 29.748 7.57031 29.8242 7.41211C29.9531 7.1543 29.9707 7.03711 29.9707 6.50391C29.9707 5.9707 29.9531 5.84766 29.8242 5.5957C29.748 5.43164 29.5605 5.18555 29.4141 5.03906C28.998 4.61719 28.6699 4.48242 28.0078 4.4707C27.6387 4.45898 27.375 4.48242 27.2344 4.54102Z" fill="white"/>
<path d="M8.95313 15.2051C8.39063 15.416 7.88673 15.9316 7.69923 16.4824C7.5586 16.9043 7.60548 17.6953 7.79298 18.0762C7.97462 18.4512 8.38477 18.8613 8.75977 19.043C9.01173 19.1719 9.13477 19.1895 9.66798 19.1895C10.2012 19.1895 10.3184 19.1719 10.5762 19.043C10.7402 18.9668 10.9981 18.7734 11.1504 18.6211L11.4316 18.3398H18.8086H26.1856L26.4668 18.6211C26.6191 18.7734 26.8828 18.9668 27.041 19.043C27.2988 19.1719 27.416 19.1895 27.9492 19.1895C28.4824 19.1895 28.6055 19.1719 28.8574 19.043C29.2324 18.8613 29.6426 18.4512 29.8242 18.0762C29.9531 17.8242 29.9707 17.7012 29.9707 17.168C29.9707 16.6348 29.9531 16.5117 29.8242 16.2598C29.6426 15.8848 29.2324 15.4746 28.8574 15.293C28.6055 15.1641 28.4824 15.1465 27.9492 15.1465C27.416 15.1465 27.2988 15.1641 27.041 15.293C26.8828 15.3691 26.6191 15.5625 26.4668 15.7148L26.1856 15.9961H18.8086H11.4316L11.1504 15.7148C10.7168 15.2871 10.3945 15.1523 9.72657 15.1348C9.35157 15.123 9.09962 15.1465 8.95313 15.2051Z" fill="white"/>
<path d="M12.0586 20.4785C11.4961 20.6895 10.9922 21.2051 10.8047 21.7559C10.6641 22.1777 10.7109 22.9688 10.8984 23.3496C11.0801 23.7246 11.4902 24.1348 11.8652 24.3164C12.1172 24.4453 12.2402 24.4629 12.7734 24.4629C13.3066 24.4629 13.4238 24.4453 13.6758 24.3223C13.8399 24.2402 14.0859 24.0645 14.2324 23.9238L14.4961 23.6719H18.4688H22.4414V26.3965V29.1211H24.3164H26.1856L26.4668 29.4023C26.6191 29.5547 26.8828 29.748 27.041 29.8242C27.2988 29.9531 27.416 29.9707 27.9492 29.9707C28.4824 29.9707 28.6055 29.9531 28.8574 29.8242C29.2324 29.6426 29.6426 29.2324 29.8242 28.8574C29.9531 28.6055 29.9707 28.4824 29.9707 27.9492C29.9707 27.416 29.9531 27.293 29.8242 27.041C29.6426 26.666 29.2324 26.2559 28.8574 26.0742C28.6055 25.9453 28.4824 25.9277 27.9492 25.9277C27.416 25.9277 27.2988 25.9453 27.041 26.0742C26.8828 26.1504 26.6191 26.3438 26.4668 26.4961L26.1856 26.7773H25.4883H24.7852V24.0527V21.3281H19.6875H14.584L14.2793 21.0176C13.834 20.5664 13.5176 20.4316 12.832 20.4082C12.4512 20.3965 12.2051 20.4199 12.0586 20.4785Z" fill="white"/>
</g>
<defs>
<clipPath id="clip0_75_24">
<rect width="30" height="30" fill="white"/>
</clipPath>
</defs>
</svg>
