<svg width="20" height="20" viewBox="0 0 20 20" fill="none" xmlns="http://www.w3.org/2000/svg">
<path d="M15.8264 17.5017H14.9931V16.1125C14.9905 15.6356 14.906 15.1627 14.7434 14.7144C14.7343 14.6899 14.7248 14.6672 14.7135 14.6439C14.5786 14.2759 14.3921 13.929 14.1597 13.6133L12.9932 12.0573C12.6695 11.6239 12.4941 11.0976 12.4931 10.5567V9.71516C12.495 9.0526 12.758 8.4175 13.2251 7.94758L13.7728 7.39989C14.4091 6.7601 14.8179 5.92914 14.9364 5.03457C14.9368 5.02298 14.943 5.01332 14.943 5.00162L14.9407 4.99018C14.9697 4.81274 14.9872 4.63362 14.9931 4.45393V2.50166H15.8264C16.0474 2.50166 16.2594 2.41386 16.4157 2.25758C16.572 2.1013 16.6598 1.88934 16.6598 1.66832C16.6598 1.44731 16.572 1.23535 16.4157 1.07907C16.2594 0.922789 16.0474 0.834991 15.8264 0.834991H4.15976C3.93874 0.834991 3.72678 0.922789 3.5705 1.07907C3.41422 1.23535 3.32642 1.44731 3.32642 1.66832C3.32642 1.88934 3.41422 2.1013 3.5705 2.25758C3.72678 2.41386 3.93874 2.50166 4.15976 2.50166H4.99309V4.45393C4.99901 4.63362 5.01651 4.81274 5.04548 4.99018L5.04313 5.00166C5.04313 5.01333 5.04933 5.02303 5.0498 5.03462C5.16826 5.92918 5.57704 6.76014 6.21338 7.39993L6.76107 7.94763C7.22815 8.41753 7.49117 9.05261 7.49308 9.71516V10.5567C7.492 11.0976 7.3168 11.6237 6.99341 12.0573L5.82601 13.6133C5.59371 13.9291 5.40731 14.2762 5.27237 14.6443C5.26128 14.6673 5.25177 14.6898 5.24277 14.714C5.08015 15.1624 4.99569 15.6355 4.99308 16.1125V17.5017H4.15975C3.93874 17.5017 3.72677 17.5895 3.57049 17.7457C3.41421 17.902 3.32642 18.114 3.32642 18.335C3.32642 18.556 3.41421 18.768 3.57049 18.9242C3.72677 19.0805 3.93874 19.1683 4.15975 19.1683H15.8264C16.0474 19.1683 16.2594 19.0805 16.4157 18.9242C16.572 18.768 16.6597 18.556 16.6597 18.335C16.6597 18.114 16.572 17.902 16.4157 17.7457C16.2594 17.5895 16.0474 17.5017 15.8264 17.5017ZM6.65975 4.16832V2.50166H13.3264V4.16832H6.65975ZM7.39177 6.22155C7.27434 6.10358 7.16912 5.97408 7.07769 5.83499H12.9085C12.817 5.97407 12.7118 6.10358 12.5944 6.22155L12.0467 6.76924C11.3967 7.41545 10.9799 8.25938 10.8618 9.16833H9.12432C9.00629 8.25935 8.58949 7.41539 7.93945 6.76916L7.39177 6.22155ZM8.32682 13.0567C8.80901 12.4106 9.09492 11.6393 9.15039 10.835H10.8358C10.8912 11.6393 11.1773 12.4107 11.6597 13.0567L12.4932 14.1683H7.49277L8.32682 13.0567ZM13.3264 17.5017H6.65975V16.1125C6.66207 16.0196 6.66964 15.927 6.68243 15.835H13.3037C13.3165 15.927 13.3241 16.0196 13.3264 16.1125V17.5017Z" fill="white"/>
</svg>
