<svg width="16" height="20" viewBox="0 0 16 20" fill="none" xmlns="http://www.w3.org/2000/svg">
<g clip-path="url(#clip0_47_265)">
<path d="M14.8426 2.2685C14.735 2.18149 14.6093 2.11968 14.4747 2.08764C14.3401 2.05559 14.2001 2.05411 14.0648 2.08332C13.0754 2.29067 12.054 2.29332 11.0635 2.09108C10.0731 1.88885 9.13448 1.48602 8.30555 0.907392C8.15056 0.799867 7.96641 0.742249 7.77777 0.742249C7.58913 0.742249 7.40499 0.799867 7.25 0.907392C6.42107 1.48602 5.48247 1.88885 4.492 2.09108C3.50153 2.29332 2.48015 2.29067 1.49074 2.08332C1.35549 2.05411 1.21543 2.05559 1.08083 2.08764C0.946233 2.11968 0.820529 2.18149 0.712959 2.2685C0.605533 2.35565 0.518997 2.46576 0.459711 2.59074C0.400426 2.71572 0.369896 2.8524 0.370367 2.99073V9.88887C0.369543 11.2164 0.685897 12.525 1.29308 13.7055C1.90027 14.8861 2.78072 15.9045 3.86111 16.6759L7.24074 19.0833C7.39755 19.195 7.58527 19.255 7.77777 19.255C7.97028 19.255 8.15799 19.195 8.31481 19.0833L11.6944 16.6759C12.7748 15.9045 13.6553 14.8861 14.2625 13.7055C14.8697 12.525 15.186 11.2164 15.1852 9.88887V2.99073C15.1857 2.8524 15.1551 2.71572 15.0958 2.59074C15.0366 2.46576 14.95 2.35565 14.8426 2.2685ZM13.3333 9.88887C13.334 10.9211 13.0882 11.9385 12.6163 12.8565C12.1445 13.7745 11.4601 14.5665 10.6204 15.1667L7.77777 17.1944L4.93518 15.1667C4.0954 14.5665 3.41109 13.7745 2.93921 12.8565C2.46732 11.9385 2.22151 10.9211 2.22222 9.88887V4.05554C4.16336 4.22168 6.10744 3.7713 7.77777 2.7685C9.44811 3.7713 11.3922 4.22168 13.3333 4.05554V9.88887ZM9.2037 7.7685L6.71296 10.2685L5.88889 9.43517C5.71453 9.26081 5.47805 9.16286 5.23148 9.16286C4.9849 9.16286 4.74843 9.26081 4.57407 9.43517C4.39971 9.60953 4.30176 9.846 4.30176 10.0926C4.30176 10.3392 4.39971 10.5756 4.57407 10.75L6.05555 12.2315C6.14163 12.3183 6.24404 12.3871 6.35687 12.4341C6.4697 12.4812 6.59073 12.5054 6.71296 12.5054C6.83519 12.5054 6.95622 12.4812 7.06905 12.4341C7.18188 12.3871 7.28429 12.3183 7.37037 12.2315L10.5556 9.07406C10.7299 8.8997 10.8279 8.66323 10.8279 8.41665C10.8279 8.17008 10.7299 7.9336 10.5556 7.75924C10.3812 7.58489 10.1447 7.48694 9.89814 7.48694C9.65157 7.48694 9.41509 7.58489 9.24074 7.75924L9.2037 7.7685Z" fill="white"/>
</g>
<defs>
<clipPath id="clip0_47_265">
<rect width="15.5556" height="20" fill="white"/>
</clipPath>
</defs>
</svg>
