<svg width="20" height="20" viewBox="0 0 20 20" fill="none" xmlns="http://www.w3.org/2000/svg">
<path d="M17.5 3.33334H15V2.50001C15 2.27899 14.9122 2.06703 14.7559 1.91075C14.5997 1.75447 14.3877 1.66667 14.1667 1.66667H5.83335C5.61234 1.66667 5.40038 1.75447 5.2441 1.91075C5.08782 2.06703 5.00002 2.27899 5.00002 2.50001V3.33334H2.50002C2.27901 3.33334 2.06704 3.42114 1.91076 3.57742C1.75448 3.7337 1.66669 3.94566 1.66669 4.16667V6.66667C1.66669 7.55073 2.01788 8.39857 2.643 9.02369C3.26812 9.64882 4.11597 10 5.00002 10H6.28335C7.03713 10.841 8.0534 11.402 9.16669 11.5917V13.3333H8.33335C7.67031 13.3333 7.03443 13.5967 6.56559 14.0656C6.09675 14.5344 5.83335 15.1703 5.83335 15.8333V17.5C5.83335 17.721 5.92115 17.933 6.07743 18.0893C6.23371 18.2455 6.44567 18.3333 6.66669 18.3333H13.3334C13.5544 18.3333 13.7663 18.2455 13.9226 18.0893C14.0789 17.933 14.1667 17.721 14.1667 17.5V15.8333C14.1667 15.1703 13.9033 14.5344 13.4345 14.0656C12.9656 13.5967 12.3297 13.3333 11.6667 13.3333H10.8334V11.5917C11.9466 11.402 12.9629 10.841 13.7167 10H15C15.8841 10 16.7319 9.64882 17.357 9.02369C17.9822 8.39857 18.3334 7.55073 18.3334 6.66667V4.16667C18.3334 3.94566 18.2456 3.7337 18.0893 3.57742C17.933 3.42114 17.721 3.33334 17.5 3.33334ZM5.00002 8.33334C4.55799 8.33334 4.13407 8.15774 3.82151 7.84518C3.50895 7.53262 3.33335 7.1087 3.33335 6.66667V5.00001H5.00002V6.66667C5.00185 7.23476 5.10049 7.79839 5.29169 8.33334H5.00002ZM11.6667 15C11.8877 15 12.0997 15.0878 12.2559 15.2441C12.4122 15.4004 12.5 15.6123 12.5 15.8333V16.6667H7.50002V15.8333C7.50002 15.6123 7.58782 15.4004 7.7441 15.2441C7.90038 15.0878 8.11234 15 8.33335 15H11.6667ZM13.3334 6.66667C13.3334 7.55073 12.9822 8.39857 12.357 9.02369C11.7319 9.64882 10.8841 10 10 10C9.11597 10 8.26812 9.64882 7.643 9.02369C7.01788 8.39857 6.66669 7.55073 6.66669 6.66667V3.33334H13.3334V6.66667ZM16.6667 6.66667C16.6667 7.1087 16.4911 7.53262 16.1785 7.84518C15.866 8.15774 15.442 8.33334 15 8.33334H14.7084C14.8996 7.79839 14.9982 7.23476 15 6.66667V5.00001H16.6667V6.66667Z" fill="white"/>
</svg>
