<svg width="18" height="18" viewBox="0 0 18 18" fill="none" xmlns="http://www.w3.org/2000/svg">
<g clip-path="url(#clip0_58_370)">
<path d="M7.77305 0.0773449C7.75898 0.123047 7.61484 0.657423 7.45312 1.26914L7.16133 2.37656L6.77109 2.51016C6.55312 2.58047 6.20508 2.72461 5.99414 2.82656L5.61094 3.01289L4.55625 2.40469L3.49805 1.79297L2.64727 2.64375C1.97578 3.31524 1.80352 3.50508 1.82812 3.55078C1.8457 3.58242 2.11992 4.06055 2.43633 4.60898L3.01289 5.61445L2.83359 5.98359C2.73164 6.18398 2.5875 6.53203 2.51367 6.75703L2.37656 7.16484L1.19531 7.47773L0.0175781 7.78711V9V10.2129L1.19531 10.5258L2.37656 10.8387L2.51367 11.243C2.5875 11.468 2.73164 11.816 2.83359 12.0164L3.01289 12.3855L2.43633 13.391C2.11992 13.9395 1.8457 14.4176 1.82812 14.4492C1.80352 14.4949 1.97578 14.6848 2.64727 15.3563L3.49805 16.207L4.55625 15.5953L5.61094 14.9871L5.99414 15.1734C6.20508 15.2754 6.55312 15.4195 6.77109 15.4898L7.16133 15.6234L7.47422 16.8012L7.78711 17.9824H9H10.2129L10.5188 16.8398L10.8211 15.6973L10.2375 15.1102C9.86836 14.7375 9.64336 14.5371 9.6293 14.5652C9.61875 14.5863 9.49219 15.0539 9.34805 15.5988C9.09492 16.5656 9.08437 16.5938 9 16.5938C8.91562 16.5938 8.90508 16.5656 8.65195 15.5988C8.50781 15.0539 8.37773 14.5582 8.36016 14.4984C8.33203 14.3965 8.32148 14.3895 8.00859 14.3297C7.33008 14.2031 6.66211 13.9324 6.01875 13.5211L5.65664 13.2891L4.70391 13.8375C4.18008 14.1363 3.73008 14.3754 3.70547 14.3648C3.67734 14.3543 3.6457 14.3227 3.63516 14.2945C3.62461 14.2664 3.86367 13.8199 4.1625 13.2961L4.71094 12.3469L4.47891 11.9848C4.07812 11.3484 3.83203 10.7613 3.69141 10.0863C3.64922 9.88594 3.59648 9.70312 3.57187 9.68203C3.55078 9.66094 3.05508 9.5168 2.47148 9.36563C1.43437 9.09492 1.40625 9.08438 1.40625 9C1.40625 8.91563 1.43437 8.90508 2.47148 8.63438C3.05508 8.4832 3.55078 8.33906 3.57187 8.31797C3.59648 8.29688 3.64922 8.11406 3.69141 7.91367C3.83203 7.23867 4.07812 6.65156 4.47891 6.01523L4.71094 5.65313L4.1625 4.70391C3.86367 4.18008 3.62461 3.73359 3.63516 3.70547C3.6457 3.67734 3.67734 3.6457 3.70547 3.63516C3.73008 3.62461 4.18008 3.86367 4.70391 4.1625L5.65664 4.71094L6.01875 4.47891C6.66211 4.06758 7.33008 3.79688 8.00859 3.67031C8.32148 3.61055 8.33203 3.60352 8.36016 3.50156C8.37773 3.4418 8.50781 2.94609 8.65195 2.40117C8.90508 1.43438 8.91562 1.40625 9 1.40625C9.08437 1.40625 9.09492 1.43438 9.36562 2.47149C9.5168 3.05508 9.66094 3.55078 9.68203 3.57188C9.70312 3.59297 9.88594 3.6457 10.0898 3.69141C10.7789 3.83906 11.352 4.07812 11.9848 4.47891L12.3469 4.71094L13.2961 4.1625C13.8199 3.86367 14.2664 3.62461 14.2945 3.63516C14.3227 3.6457 14.3543 3.67734 14.3648 3.70547C14.3754 3.73008 14.1363 4.18008 13.8375 4.70391L13.2891 5.65664L13.5211 6.01875C13.9219 6.65156 14.168 7.23867 14.3086 7.91367C14.3508 8.11406 14.4035 8.29688 14.4281 8.31797C14.4492 8.33906 14.9449 8.4832 15.5285 8.63438C16.5656 8.90508 16.5938 8.91563 16.5938 9C16.5938 9.08438 16.5656 9.09492 15.5988 9.34805C15.0539 9.49219 14.5863 9.61875 14.5652 9.6293C14.5371 9.64336 14.7375 9.86836 15.1102 10.2375L15.6973 10.8211L16.8398 10.5188L17.9824 10.2129V9V7.78711L16.8012 7.47422L15.6234 7.16133L15.4863 6.75703C15.4125 6.53203 15.2684 6.18398 15.1664 5.98359L14.9871 5.61445L15.5953 4.55625L16.2035 3.49805L15.3562 2.64727C14.6848 1.97578 14.4949 1.80352 14.4492 1.82812C14.4176 1.8457 13.9395 2.11992 13.391 2.43633L12.3855 3.01289L12.0164 2.83359C11.816 2.73164 11.468 2.5875 11.243 2.51367L10.8387 2.37656L10.5258 1.19883L10.2129 0.0175781L9.00703 0.00703239L7.80469 0L7.77305 0.0773449Z" fill="white"/>
<path d="M8.61327 4.92539C8.43046 4.94297 8.15976 4.98516 8.0121 5.02383C7.7871 5.08008 6.55663 5.53711 6.50741 5.5793C6.49687 5.58633 6.99609 6.10312 7.61835 6.72539C8.64491 7.75898 8.74687 7.87148 8.78202 8.01914C8.89804 8.48672 8.48671 8.89805 8.01562 8.78203C7.87148 8.74687 7.75195 8.63789 6.72538 7.61836C6.10312 6.99609 5.58632 6.49687 5.57929 6.50742C5.53359 6.55664 5.08007 7.79062 5.02382 8.01211C4.98515 8.15625 4.94296 8.44453 4.92187 8.64844C4.70741 11.1234 6.72187 13.2223 9.19335 13.0992C9.42538 13.0887 9.71015 13.057 9.82616 13.0289L10.0371 12.9832L12.3926 15.3281C14.516 17.4375 14.7691 17.6801 14.9766 17.782C15.2965 17.9367 15.5707 18 15.9434 18C16.548 18 16.984 17.8207 17.4023 17.4023C17.8172 16.9875 18 16.5445 18 15.9434C18 15.5777 17.9367 15.3035 17.782 14.9766C17.6801 14.7691 17.4586 14.5371 15.3281 12.3926L12.9832 10.0371L13.0289 9.82617C13.057 9.71016 13.0887 9.42539 13.0992 9.19336C13.1555 8.05078 12.7371 6.95039 11.9355 6.13125C11.0672 5.24883 9.89648 4.82344 8.61327 4.92539ZM9.87187 6.50391C10.2832 6.64453 10.5187 6.79219 10.8844 7.1543C11.1551 7.42148 11.2289 7.51992 11.366 7.80469C11.5945 8.26523 11.6508 8.51133 11.6543 9C11.6543 9.44648 11.6156 9.63281 11.4363 10.1039L11.3133 10.4168L13.8797 12.9867C15.293 14.4 16.4707 15.6059 16.5023 15.6691C16.5832 15.8344 16.5726 16.091 16.4777 16.2598C16.3266 16.527 15.9504 16.643 15.6762 16.5059C15.6094 16.4742 14.4 15.293 12.9867 13.8797L10.4168 11.3133L10.0934 11.4398C9.23554 11.7703 8.5289 11.7422 7.75195 11.3449C7.53749 11.2324 7.39687 11.127 7.15429 10.8809C6.98202 10.7086 6.78515 10.473 6.71835 10.3641C6.5953 10.1531 6.42304 9.67852 6.38085 9.44297L6.35624 9.30234L6.67265 9.60117C7.1578 10.0652 7.58671 10.2445 8.1914 10.241C8.77851 10.2375 9.21093 10.0547 9.63632 9.63281C10.0617 9.21445 10.2445 8.75391 10.2375 8.13867C10.234 7.55508 10.0476 7.1332 9.58359 6.65156L9.30234 6.35625L9.43945 6.38086C9.51679 6.39492 9.71015 6.45117 9.87187 6.50391Z" fill="white"/>
</g>
<defs>
<clipPath id="clip0_58_370">
<rect width="18" height="18" fill="white"/>
</clipPath>
</defs>
</svg>
