<svg width="25" height="25" viewBox="0 0 25 25" fill="none" xmlns="http://www.w3.org/2000/svg">
<path fill-rule="evenodd" clip-rule="evenodd" d="M11.5 13.5C11.5 12.3954 12.3954 11.5 13.5 11.5H19.5C20.6046 11.5 21.5 12.3954 21.5 13.5V19.5C21.5 20.6046 20.6046 21.5 19.5 21.5H12.5C11.9477 21.5 11.5 21.0523 11.5 20.5V13.5ZM19.5 13.5H13.5V19.5H19.5V13.5Z" fill="white"/>
<path fill-rule="evenodd" clip-rule="evenodd" d="M3.5 13.5C3.5 12.3954 4.39543 11.5 5.5 11.5H11.5C12.6046 11.5 13.5 12.3954 13.5 13.5V20.5C13.5 21.0523 13.0523 21.5 12.5 21.5H5.5C4.39543 21.5 3.5 20.6046 3.5 19.5V13.5ZM11.5 13.5H5.5V19.5H11.5V13.5Z" fill="white"/>
<path fill-rule="evenodd" clip-rule="evenodd" d="M11.5 9.5C11.5 8.39543 12.3954 7.5 13.5 7.5H20.5C21.6046 7.5 22.5 8.39543 22.5 9.5V11.5C22.5 12.6046 21.6046 13.5 20.5 13.5H13.5C12.3954 13.5 11.5 12.6046 11.5 11.5V9.5ZM20.5 9.5H13.5V11.5H20.5V9.5Z" fill="white"/>
<path fill-rule="evenodd" clip-rule="evenodd" d="M2.5 9.5C2.5 8.39543 3.39543 7.5 4.5 7.5H11.5C12.6046 7.5 13.5 8.39543 13.5 9.5V11.5C13.5 12.6046 12.6046 13.5 11.5 13.5H4.5C3.39543 13.5 2.5 12.6046 2.5 11.5V9.5ZM11.5 9.5H4.5V11.5H11.5V9.5Z" fill="white"/>
<path fill-rule="evenodd" clip-rule="evenodd" d="M11.5 6C11.5 4.067 13.067 2.5 15 2.5C16.933 2.5 18.5 4.067 18.5 6C18.5 7.933 16.933 9.5 15 9.5H12.5C11.9477 9.5 11.5 9.05228 11.5 8.5V6ZM15 4.5C14.1716 4.5 13.5 5.17157 13.5 6V7.5H15C15.8284 7.5 16.5 6.82843 16.5 6C16.5 5.17157 15.8284 4.5 15 4.5Z" fill="white"/>
<path fill-rule="evenodd" clip-rule="evenodd" d="M6.5 6C6.5 4.067 8.067 2.5 10 2.5C11.933 2.5 13.5 4.067 13.5 6V8.5C13.5 9.05228 13.0523 9.5 12.5 9.5H10C8.067 9.5 6.5 7.933 6.5 6ZM10 4.5C9.17157 4.5 8.5 5.17157 8.5 6C8.5 6.82843 9.17157 7.5 10 7.5H11.5V6C11.5 5.17157 10.8284 4.5 10 4.5Z" fill="white"/>
</svg>
