<svg width="151" height="41" viewBox="0 0 151 41" fill="none" xmlns="http://www.w3.org/2000/svg">
<g clip-path="url(#clip0_52_339)">
<path d="M11.044 0H139.947C145.42 0 150 4.05071 150.848 9.31126H0.142849C0.999941 4.05071 5.5711 0 11.044 0ZM151 11.3456V29.9054C151 30.1473 150.991 30.3893 150.973 30.6313H0.0267841C0.00892804 30.3893 0 30.1563 0 29.9143V11.3456H151ZM150.652 32.6656C149.42 37.4422 145.081 41 139.947 41H11.044C5.91036 41 1.57134 37.4422 0.339266 32.6656H150.652Z" fill="#1CAEB3"/>
<path d="M9.82977 15.6831V26.715H12.6867V17.8787H13.0617L17.1597 26.715H21.222L25.3199 17.8787H25.6949V26.715H28.5519V15.6831H23.2397L19.2846 24.5194H19.106L15.1509 15.6831H9.82977ZM33.3641 22.6822V19.7428C33.3641 18.1655 33.8641 17.7532 35.6497 17.7532H39.328C41.0333 17.7532 41.6136 18.1207 41.6136 19.7248V22.6643C41.6136 24.1609 41.2029 24.5283 39.3727 24.5283H35.5872C33.8641 24.5283 33.3641 24.125 33.3641 22.6822ZM44.4795 22.9511V19.4829C44.4795 16.3821 43.1224 15.5576 40.1583 15.5576H34.9086C31.6588 15.5576 30.5071 16.4628 30.5071 19.4829V22.9511C30.5071 25.6217 31.7124 26.715 34.9086 26.715H40.1583C43.4974 26.724 44.4795 25.7023 44.4795 22.9511ZM46.4258 15.6831V26.715H54.5593C57.3984 26.715 58.809 26.0518 58.809 23.2647C58.809 20.4507 57.3091 19.7965 54.4878 19.7965H49.2828V17.7622H57.6305V15.6831H46.4258ZM49.2828 22.0011H54.3271C55.8092 22.0011 55.961 22.3954 55.961 23.2378C55.961 24.2057 55.7556 24.5283 54.22 24.5283H49.2828V22.0011ZM63.8176 15.6831H60.9607V26.715H65.8622L73.0403 17.8787H73.4331V26.715H76.2901V15.6831H71.4868L64.2105 24.5194H63.8176V15.6831ZM79.4239 15.6831V22.4044C79.4239 24.0085 79.1471 24.5194 77.6829 24.5194V26.715H78.8882C81.022 26.715 82.2808 25.541 82.2808 22.7091V17.8787H88.9858V26.715H91.8428V15.6831H79.4239ZM96.1729 26.724L97.7174 23.9458H104.788L106.315 26.724H109.672L103.396 15.692H99.1638L92.8338 26.724H96.1729ZM98.8781 21.8577L101.235 17.7532H101.369L103.637 21.8577H98.8781ZM113.6 15.6831H110.743V26.715H115.645L122.823 17.8787H123.216V26.715H126.073V15.6831H121.27L113.993 24.5194H113.6V15.6831ZM130.93 15.6831H128.073V26.715H130.93V22.1087H138.313V26.715H141.17V15.6831H138.313V19.913H130.93V15.6831Z" fill="white"/>
<path fill-rule="evenodd" clip-rule="evenodd" d="M114.975 13.2634H120.127V15.1812H114.975V13.2634Z" fill="white"/>
</g>
<defs>
<clipPath id="clip0_52_339">
<rect width="151" height="41" fill="white"/>
</clipPath>
</defs>
</svg>
