<svg width="26" height="26" viewBox="0 0 26 26" fill="none" xmlns="http://www.w3.org/2000/svg">
<path d="M13 0C7.62227 0 3.25 4.37227 3.25 9.75C3.25 16.9406 12.2434 25.4922 12.6293 25.8527C12.7359 25.9492 12.868 26 13 26C13.132 26 13.2691 25.9492 13.3707 25.8527C13.7566 25.4922 22.75 16.9406 22.75 9.75C22.75 4.37227 18.3777 0 13 0ZM13 15.1684C10.0141 15.1684 7.58164 12.7359 7.58164 9.75C7.58164 6.76406 10.0141 4.33164 13 4.33164C15.9859 4.33164 18.4184 6.76406 18.4184 9.75C18.4184 12.7359 15.9859 15.1684 13 15.1684Z" fill="#16868A"/>
</svg>
