<svg width="19" height="17" viewBox="0 0 19 17" fill="none" xmlns="http://www.w3.org/2000/svg">
<g clip-path="url(#clip0_242_256)">
<path d="M17.6196 0.18927L0.743994 7.04411C0.743994 7.04411 -0.0566034 7.32483 0.00643572 7.8471C0.0694749 8.36938 0.718778 8.61093 0.718778 8.61093L4.96131 10.0929L4.96762 10.0994V10.0929L15.1547 3.38819C15.1547 3.38819 15.741 3.01607 15.7221 3.38819C15.7221 3.38819 15.8293 3.45348 15.5141 3.76031C15.1989 4.06715 7.50809 11.2223 7.50809 11.2223L7.49549 11.3594L14.4172 16.8563C15.5708 17.3786 15.9932 16.2883 15.9932 16.2883L19.0001 0.60056C19.0001 -0.443987 17.6133 0.18927 17.6196 0.18927Z" fill="#1393E2"/>
<path d="M10.143 13.4616L7.40079 16.0533C7.40079 16.0533 7.18646 16.2231 6.95322 16.1186L7.47644 11.3072" fill="#1393E2"/>
</g>
<defs>
<clipPath id="clip0_242_256">
<rect width="19" height="17" fill="white"/>
</clipPath>
</defs>
</svg>
