<svg width="18" height="19" viewBox="0 0 18 19" fill="none" xmlns="http://www.w3.org/2000/svg">
<g clip-path="url(#clip0_242_259)">
<path d="M16.488 10.6437C16.02 14.4965 13.194 14.7428 12.672 14.9187C12.456 14.9891 10.386 15.4993 7.812 15.3409L5.004 18.3845V14.8835H4.986C1.224 13.828 1.35 9.90483 1.386 7.8465C1.422 5.78816 1.818 4.09927 2.97 2.95576C5.04 1.09094 9.288 1.37242 9.288 1.37242C12.888 1.39002 14.598 2.46316 14.994 2.83261C16.308 3.95853 16.992 6.66779 16.488 10.6437ZM15.966 1.84742C15.498 1.4252 13.59 0.035386 9.342 0.0177934C9.342 0.0177934 4.338 -0.281281 1.89 1.95298C0.539995 3.30761 0.0539954 5.29557 0.0179954 7.75853C-0.0360046 10.2215 -0.0900046 14.8483 4.356 16.0974V18.015C4.356 18.015 4.32 18.7891 4.842 18.9474C5.454 19.1409 5.81399 18.5428 6.408 17.9095C6.732 17.5576 7.182 17.0474 7.506 16.6604C10.548 16.9243 12.888 16.3261 13.158 16.2382C13.77 16.0446 17.244 15.5872 17.82 10.978C18.396 6.22798 17.532 3.20205 15.966 1.84742Z" fill="#7360F2"/>
<path d="M13.248 11.2241C13.248 11.2241 12.672 10.7491 12.402 10.538C12.132 10.3444 11.718 10.0806 11.484 9.9574C11.07 9.7287 10.638 9.86944 10.458 10.0981L10.098 10.5556C9.918 10.7843 9.612 10.7491 9.54 10.7315C9 10.5907 8.424 10.2741 7.83 9.71111C7.236 9.14815 6.876 8.55 6.75 7.95185L6.732 7.91666C6.696 7.67037 6.732 7.54722 6.84 7.37129L6.858 7.3537C7.11 7.125 7.56 6.86111 7.632 6.59722C7.812 6.13981 7.02 5.18981 6.912 5.03148C6.912 5.03148 6.336 4.29259 6.138 4.15185C5.922 3.97592 5.58 3.87037 5.238 4.08148H5.22C4.23 4.7324 3.888 5.10185 3.978 5.66481L4.032 5.89352C4.536 7.42407 5.49 9.07778 6.93 10.538C8.352 11.963 9.9 12.825 11.412 13.4231C11.808 13.5463 12.222 13.4407 12.636 13.0889C12.96 12.7898 13.212 12.4731 13.392 12.1389C13.59 11.787 13.518 11.4528 13.248 11.2241Z" fill="#7360F2"/>
<path d="M10.89 7.84633C10.836 7.84633 10.782 7.79356 10.782 7.74078C10.764 7.33615 10.656 7.03707 10.458 6.82596C10.26 6.61485 9.97202 6.5093 9.59402 6.4917C9.54002 6.4917 9.48602 6.43893 9.48602 6.36856C9.48602 6.29819 9.54002 6.263 9.61202 6.263C10.062 6.28059 10.404 6.42133 10.638 6.66763C10.872 6.91393 10.998 7.26578 11.034 7.72319C11.016 7.79356 10.962 7.84633 10.89 7.84633Z" fill="#7360F2"/>
<path d="M12.006 8.23335C11.934 8.23335 11.898 8.18057 11.898 8.1102C11.916 7.35372 11.682 6.70279 11.214 6.19261C10.98 5.92872 10.692 5.7352 10.368 5.59446C10.044 5.45372 9.66598 5.36576 9.23398 5.33057C9.17998 5.33057 9.12598 5.27779 9.12598 5.20742C9.12598 5.13705 9.17998 5.10187 9.25198 5.10187C10.152 5.17224 10.872 5.4889 11.376 6.03427C11.88 6.59724 12.132 7.28335 12.114 8.1102C12.132 8.18057 12.078 8.23335 12.006 8.23335Z" fill="#7360F2"/>
<path d="M13.158 8.67316C13.104 8.67316 13.05 8.62038 13.05 8.5676C13.05 7.89909 12.942 7.28335 12.744 6.75557C12.546 6.22779 12.24 5.77038 11.844 5.38335C11.448 4.99631 10.998 4.69723 10.512 4.50372C10.026 4.3102 9.46799 4.20464 8.87399 4.20464C8.81999 4.20464 8.76599 4.15186 8.76599 4.09909C8.76599 4.02872 8.81999 3.99353 8.87399 3.99353C10.116 4.01112 11.16 4.41575 12.006 5.2426C12.42 5.64723 12.744 6.13983 12.96 6.70279C13.176 7.26575 13.284 7.89909 13.284 8.60279C13.284 8.62038 13.23 8.67316 13.158 8.67316Z" fill="#7360F2"/>
</g>
<defs>
<clipPath id="clip0_242_259">
<rect width="18" height="19" fill="white"/>
</clipPath>
</defs>
</svg>
